<svg width="127" height="65" viewBox="0 0 127 65" fill="none" xmlns="http://www.w3.org/2000/svg">
<rect y="0.000488281" width="127" height="65" rx="11.0702" fill="#161D26"/>
<path d="M98.4263 9.76739H97.2547V10.9701H96.4364V9.76739H95.2647V9.01107H96.4364V7.80841H97.2547V9.01107H98.4263V9.76739ZM102.449 10.3501C102.449 10.565 102.393 10.7675 102.281 10.9577C102.174 11.1436 102.013 11.2986 101.798 11.4226C101.587 11.5425 101.337 11.6127 101.048 11.6334V12.1355H100.651V11.6272C100.238 11.59 99.9049 11.466 99.6527 11.2552C99.4006 11.0403 99.2705 10.751 99.2622 10.3873H100.192C100.217 10.6849 100.37 10.8647 100.651 10.9267V9.74259C100.353 9.6682 100.114 9.59381 99.9317 9.51942C99.7499 9.44503 99.5928 9.32517 99.4606 9.15986C99.3283 8.99454 99.2622 8.7693 99.2622 8.48413C99.2622 8.12457 99.3903 7.83114 99.6465 7.60383C99.9069 7.37652 100.242 7.24633 100.651 7.21327V6.71113H101.048V7.21327C101.444 7.24633 101.761 7.36619 101.996 7.57283C102.236 7.77948 102.37 8.06465 102.399 8.42834H101.463C101.451 8.30849 101.407 8.20516 101.333 8.11837C101.263 8.02745 101.167 7.96339 101.048 7.92619V9.09787C101.358 9.17639 101.601 9.25285 101.779 9.32724C101.961 9.3975 102.118 9.51529 102.25 9.6806C102.383 9.84178 102.449 10.065 102.449 10.3501ZM100.167 8.44074C100.167 8.57712 100.209 8.68871 100.291 8.7755C100.374 8.85816 100.494 8.92635 100.651 8.98008V7.9076C100.502 7.92826 100.384 7.98405 100.297 8.07498C100.211 8.1659 100.167 8.28782 100.167 8.44074ZM101.048 10.9391C101.205 10.9101 101.327 10.8461 101.413 10.7469C101.504 10.6477 101.55 10.5278 101.55 10.3873C101.55 10.2509 101.506 10.1414 101.42 10.0588C101.333 9.9761 101.209 9.90791 101.048 9.85418V10.9391ZM103.591 10.6167C103.988 10.2861 104.304 10.0112 104.54 9.79219C104.775 9.56901 104.972 9.33757 105.129 9.09787C105.286 8.85816 105.364 8.62258 105.364 8.39114C105.364 8.18037 105.315 8.01505 105.215 7.8952C105.116 7.77534 104.963 7.71542 104.757 7.71542C104.55 7.71542 104.391 7.78568 104.279 7.92619C104.168 8.06258 104.11 8.25062 104.106 8.49033H103.263C103.279 7.99439 103.426 7.61829 103.703 7.36206C103.984 7.10582 104.339 6.9777 104.769 6.9777C105.24 6.9777 105.602 7.10375 105.854 7.35586C106.106 7.60383 106.232 7.93239 106.232 8.34155C106.232 8.66391 106.145 8.97181 105.972 9.26525C105.798 9.55868 105.6 9.81492 105.377 10.034C105.153 10.2489 104.862 10.5092 104.502 10.8151H106.331V11.5342H103.269V10.8895L103.591 10.6167ZM107.362 11.6396C107.205 11.6396 107.074 11.5921 106.971 11.497C106.872 11.3978 106.822 11.2759 106.822 11.1312C106.822 10.9866 106.872 10.8667 106.971 10.7717C107.074 10.6725 107.205 10.6229 107.362 10.6229C107.515 10.6229 107.641 10.6725 107.74 10.7717C107.839 10.8667 107.889 10.9866 107.889 11.1312C107.889 11.2759 107.839 11.3978 107.74 11.497C107.641 11.5921 107.515 11.6396 107.362 11.6396ZM108.761 10.6167C109.158 10.2861 109.474 10.0112 109.71 9.79219C109.945 9.56901 110.142 9.33757 110.299 9.09787C110.456 8.85816 110.534 8.62258 110.534 8.39114C110.534 8.18037 110.485 8.01505 110.386 7.8952C110.286 7.77534 110.133 7.71542 109.927 7.71542C109.72 7.71542 109.561 7.78568 109.449 7.92619C109.338 8.06258 109.28 8.25062 109.276 8.49033H108.433C108.449 7.99439 108.596 7.61829 108.873 7.36206C109.154 7.10582 109.509 6.9777 109.939 6.9777C110.41 6.9777 110.772 7.10375 111.024 7.35586C111.276 7.60383 111.402 7.93239 111.402 8.34155C111.402 8.66391 111.315 8.97181 111.142 9.26525C110.968 9.55868 110.77 9.81492 110.547 10.034C110.324 10.2489 110.032 10.5092 109.673 10.8151H111.501V11.5342H108.439V10.8895L108.761 10.6167ZM112.321 10.6167C112.718 10.2861 113.034 10.0112 113.27 9.79219C113.505 9.56901 113.701 9.33757 113.858 9.09787C114.016 8.85816 114.094 8.62258 114.094 8.39114C114.094 8.18037 114.044 8.01505 113.945 7.8952C113.846 7.77534 113.693 7.71542 113.487 7.71542C113.28 7.71542 113.121 7.78568 113.009 7.92619C112.898 8.06258 112.84 8.25062 112.836 8.49033H111.992C112.009 7.99439 112.156 7.61829 112.433 7.36206C112.714 7.10582 113.069 6.9777 113.499 6.9777C113.97 6.9777 114.332 7.10375 114.584 7.35586C114.836 7.60383 114.962 7.93239 114.962 8.34155C114.962 8.66391 114.875 8.97181 114.702 9.26525C114.528 9.55868 114.33 9.81492 114.106 10.034C113.883 10.2489 113.592 10.5092 113.232 10.8151H115.061V11.5342H111.999V10.8895L112.321 10.6167Z" fill="#0CAF60"/>
<path d="M113.383 6.4098L112.169 11.3338H111.771L112.98 6.4098H113.383ZM113.868 10.2578C114.243 9.95669 114.537 9.7102 114.749 9.51831C114.962 9.32348 115.14 9.12126 115.285 8.91167C115.432 8.69912 115.506 8.491 115.506 8.28731C115.506 8.09542 115.459 7.94487 115.365 7.83564C115.273 7.72346 115.124 7.66737 114.917 7.66737C114.717 7.66737 114.56 7.73084 114.448 7.85778C114.339 7.98177 114.28 8.14856 114.271 8.35816H113.881C113.893 8.02753 113.993 7.77217 114.182 7.5921C114.371 7.41202 114.615 7.32198 114.913 7.32198C115.217 7.32198 115.458 7.40612 115.635 7.57438C115.815 7.74265 115.905 7.97439 115.905 8.26959C115.905 8.51461 115.831 8.75373 115.683 8.98694C115.539 9.2172 115.373 9.4209 115.187 9.59802C115.001 9.77219 114.764 9.97588 114.475 10.2091H115.998V10.5456H113.868V10.2578ZM116.366 9.86813V9.56259L117.92 7.41055H118.403V9.51831H118.846V9.86813H118.403V10.5811H118.005V9.86813H116.366ZM118.022 7.83121L116.831 9.51831H118.022V7.83121ZM120.519 8.11018C120.702 8.11018 120.868 8.15004 121.015 8.22974C121.163 8.30649 121.278 8.4231 121.361 8.57956C121.446 8.73602 121.489 8.92643 121.489 9.15078V10.5811H121.091V9.20835C121.091 8.96628 121.03 8.78178 120.909 8.65484C120.788 8.52495 120.623 8.46 120.413 8.46C120.201 8.46 120.031 8.52642 119.904 8.65927C119.78 8.79211 119.718 8.98547 119.718 9.23934V10.5811H119.315V7.30427H119.718V8.49985C119.798 8.37587 119.907 8.27993 120.046 8.21203C120.187 8.14413 120.345 8.11018 120.519 8.11018Z" fill="#A4A8AB"/>
<rect x="106.601" y="50.8843" width="32.5" height="0.329017" rx="0.164509" transform="rotate(-90 106.601 50.8843)" fill="#212A36"/>
<rect x="47.3779" y="50.8843" width="32.5" height="0.329021" rx="0.16451" transform="rotate(-90 47.3779 50.8843)" fill="#212A36"/>
<rect x="86.8604" y="50.8843" width="32.5" height="0.329024" rx="0.164512" transform="rotate(-90 86.8604 50.8843)" fill="#212A36"/>
<rect x="27.6372" y="50.8843" width="32.5" height="0.329019" rx="0.164509" transform="rotate(-90 27.6372 50.8843)" fill="#212A36"/>
<rect x="17.7666" y="50.8843" width="32.5" height="0.329017" rx="0.164509" transform="rotate(-90 17.7666 50.8843)" fill="#212A36"/>
<rect x="67.1191" y="50.8843" width="32.5" height="0.329017" rx="0.164509" transform="rotate(-90 67.1191 50.8843)" fill="#212A36"/>
<rect x="7.89648" y="50.8843" width="32.5" height="0.329018" rx="0.164509" transform="rotate(-90 7.89648 50.8843)" fill="#212A36"/>
<rect x="116.471" y="50.8843" width="32.5" height="0.329024" rx="0.164512" transform="rotate(-90 116.471 50.8843)" fill="#212A36"/>
<rect x="57.249" y="50.8843" width="32.5" height="0.329024" rx="0.164512" transform="rotate(-90 57.249 50.8843)" fill="#212A36"/>
<rect x="96.7305" y="50.8843" width="32.5" height="0.329017" rx="0.164509" transform="rotate(-90 96.7305 50.8843)" fill="#212A36"/>
<rect x="37.5078" y="50.8843" width="32.5" height="0.329017" rx="0.164509" transform="rotate(-90 37.5078 50.8843)" fill="#212A36"/>
<path d="M7.23672 54.0745V56.5259H6.91436V54.698L6.09959 56.5259H5.87287L5.05456 54.6944V56.5259H4.7322V54.0745H5.07936L5.98623 56.1008L6.8931 54.0745H7.23672ZM8.63008 56.5578C8.44823 56.5578 8.28291 56.5164 8.13413 56.4338C7.98771 56.3511 7.87199 56.2342 7.78697 56.0831C7.70431 55.9296 7.66298 55.7524 7.66298 55.5517C7.66298 55.3533 7.70549 55.1786 7.79051 55.0274C7.87789 54.8739 7.99597 54.757 8.14476 54.6767C8.29354 54.5941 8.46004 54.5527 8.64425 54.5527C8.82845 54.5527 8.99495 54.5941 9.14373 54.6767C9.29252 54.757 9.40942 54.8727 9.49444 55.0239C9.58182 55.175 9.62551 55.351 9.62551 55.5517C9.62551 55.7524 9.58064 55.9296 9.4909 56.0831C9.40352 56.2342 9.28425 56.3511 9.13311 56.4338C8.98196 56.5164 8.81428 56.5578 8.63008 56.5578ZM8.63008 56.2744C8.7458 56.2744 8.85443 56.2472 8.95598 56.1929C9.05753 56.1386 9.13901 56.0571 9.20041 55.9485C9.26418 55.8398 9.29606 55.7076 9.29606 55.5517C9.29606 55.3958 9.26536 55.2636 9.20396 55.1549C9.14255 55.0463 9.06226 54.966 8.96307 54.9141C8.86388 54.8597 8.75642 54.8326 8.6407 54.8326C8.52262 54.8326 8.41399 54.8597 8.3148 54.9141C8.21797 54.966 8.14003 55.0463 8.08099 55.1549C8.02195 55.2636 7.99243 55.3958 7.99243 55.5517C7.99243 55.7099 8.02077 55.8434 8.07745 55.952C8.13649 56.0606 8.21443 56.1421 8.31125 56.1964C8.40808 56.2484 8.51436 56.2744 8.63008 56.2744ZM10.9952 54.5492C11.2314 54.5492 11.4227 54.6212 11.5691 54.7653C11.7155 54.907 11.7887 55.1124 11.7887 55.3817V56.5259H11.4699V55.4277C11.4699 55.2341 11.4215 55.0865 11.3246 54.9849C11.2278 54.881 11.0956 54.829 10.9279 54.829C10.7579 54.829 10.6221 54.8822 10.5205 54.9884C10.4213 55.0947 10.3717 55.2494 10.3717 55.4525V56.5259H10.0494V54.5846H10.3717V54.8609C10.4355 54.7617 10.5217 54.685 10.6303 54.6307C10.7413 54.5763 10.8629 54.5492 10.9952 54.5492Z" fill="#A4A8AB"/>
<path d="M86.2006 54.0745V56.5259H85.8782V54.698L85.0635 56.5259H84.8367L84.0184 54.6944V56.5259H83.6961V54.0745H84.0432L84.9501 56.1008L85.857 54.0745H86.2006ZM87.5939 56.5578C87.4121 56.5578 87.2468 56.5164 87.098 56.4338C86.9516 56.3511 86.8359 56.2342 86.7508 56.0831C86.6682 55.9296 86.6268 55.7524 86.6268 55.5517C86.6268 55.3533 86.6694 55.1786 86.7544 55.0274C86.8418 54.8739 86.9598 54.757 87.1086 54.6767C87.2574 54.5941 87.4239 54.5527 87.6081 54.5527C87.7923 54.5527 87.9588 54.5941 88.1076 54.6767C88.2564 54.757 88.3733 54.8727 88.4583 55.0239C88.5457 55.175 88.5894 55.351 88.5894 55.5517C88.5894 55.7524 88.5445 55.9296 88.4548 56.0831C88.3674 56.2342 88.2481 56.3511 88.097 56.4338C87.9458 56.5164 87.7782 56.5578 87.5939 56.5578ZM87.5939 56.2744C87.7097 56.2744 87.8183 56.2472 87.9199 56.1929C88.0214 56.1386 88.1029 56.0571 88.1643 55.9485C88.228 55.8398 88.2599 55.7076 88.2599 55.5517C88.2599 55.3958 88.2292 55.2636 88.1678 55.1549C88.1064 55.0463 88.0261 54.966 87.9269 54.9141C87.8277 54.8597 87.7203 54.8326 87.6046 54.8326C87.4865 54.8326 87.3779 54.8597 87.2787 54.9141C87.1818 54.966 87.1039 55.0463 87.0449 55.1549C86.9858 55.2636 86.9563 55.3958 86.9563 55.5517C86.9563 55.7099 86.9846 55.8434 87.0413 55.952C87.1004 56.0606 87.1783 56.1421 87.2751 56.1964C87.3719 56.2484 87.4782 56.2744 87.5939 56.2744ZM89.9591 54.5492C90.1952 54.5492 90.3865 54.6212 90.5329 54.7653C90.6794 54.907 90.7526 55.1124 90.7526 55.3817V56.5259H90.4338V55.4277C90.4338 55.2341 90.3853 55.0865 90.2885 54.9849C90.1917 54.881 90.0594 54.829 89.8918 54.829C89.7217 54.829 89.5859 54.8822 89.4844 54.9884C89.3852 55.0947 89.3356 55.2494 89.3356 55.4525V56.5259H89.0132V54.5846H89.3356V54.8609C89.3994 54.7617 89.4856 54.685 89.5942 54.6307C89.7052 54.5763 89.8268 54.5492 89.9591 54.5492Z" fill="#A4A8AB"/>
<path d="M17.8827 54.0568V54.3189H17.2096V56.5259H16.8872V54.3189H16.2106V54.0568H17.8827ZM20.0011 54.5846V56.5259H19.6788V56.2389C19.6174 56.3381 19.5312 56.4161 19.4202 56.4727C19.3115 56.5271 19.1911 56.5542 19.0588 56.5542C18.9077 56.5542 18.7719 56.5235 18.6514 56.4621C18.531 56.3984 18.4353 56.3039 18.3645 56.1787C18.296 56.0535 18.2618 55.9012 18.2618 55.7217V54.5846H18.5806V55.6792C18.5806 55.8705 18.629 56.0181 18.7258 56.122C18.8227 56.2236 18.9549 56.2744 19.1226 56.2744C19.295 56.2744 19.4308 56.2212 19.53 56.115C19.6292 56.0087 19.6788 55.854 19.6788 55.6509V54.5846H20.0011ZM22.3166 55.4809C22.3166 55.5423 22.3131 55.6072 22.306 55.6757H20.7544C20.7662 55.867 20.8312 56.0169 20.9493 56.1256C21.0697 56.2319 21.2149 56.285 21.385 56.285C21.5243 56.285 21.64 56.2531 21.7321 56.1893C21.8266 56.1232 21.8927 56.0358 21.9305 55.9272H22.2777C22.2257 56.1138 22.1218 56.2661 21.9659 56.3842C21.8101 56.4999 21.6164 56.5578 21.385 56.5578C21.2008 56.5578 21.0355 56.5164 20.889 56.4338C20.745 56.3511 20.6316 56.2342 20.549 56.0831C20.4663 55.9296 20.425 55.7524 20.425 55.5517C20.425 55.351 20.4651 55.175 20.5454 55.0239C20.6257 54.8727 20.7379 54.757 20.8819 54.6767C21.0284 54.5941 21.196 54.5527 21.385 54.5527C21.5692 54.5527 21.7321 54.5929 21.8738 54.6732C22.0155 54.7535 22.1242 54.8645 22.1997 55.0062C22.2777 55.1455 22.3166 55.3037 22.3166 55.4809ZM21.9837 55.4135C21.9837 55.2907 21.9565 55.1856 21.9022 55.0983C21.8479 55.0085 21.7735 54.9412 21.679 54.8963C21.5869 54.8491 21.4842 54.8255 21.3708 54.8255C21.2079 54.8255 21.0685 54.8775 20.9528 54.9814C20.8394 55.0853 20.7745 55.2293 20.758 55.4135H21.9837Z" fill="#A4A8AB"/>
<path d="M96.8465 54.0568V54.3189H96.1735V56.5259H95.8511V54.3189H95.1745V54.0568H96.8465ZM98.965 54.5846V56.5259H98.6426V56.2389C98.5812 56.3381 98.495 56.4161 98.384 56.4727C98.2754 56.5271 98.1549 56.5542 98.0227 56.5542C97.8715 56.5542 97.7358 56.5235 97.6153 56.4621C97.4949 56.3984 97.3992 56.3039 97.3284 56.1787C97.2599 56.0535 97.2256 55.9012 97.2256 55.7217V54.5846H97.5445V55.6792C97.5445 55.8705 97.5929 56.0181 97.6897 56.122C97.7865 56.2236 97.9188 56.2744 98.0865 56.2744C98.2589 56.2744 98.3947 56.2212 98.4938 56.115C98.593 56.0087 98.6426 55.854 98.6426 55.6509V54.5846H98.965ZM101.281 55.4809C101.281 55.5423 101.277 55.6072 101.27 55.6757H99.7183C99.7301 55.867 99.795 56.0169 99.9131 56.1256C100.034 56.2319 100.179 56.285 100.349 56.285C100.488 56.285 100.604 56.2531 100.696 56.1893C100.79 56.1232 100.857 56.0358 100.894 55.9272H101.242C101.19 56.1138 101.086 56.2661 100.93 56.3842C100.774 56.4999 100.58 56.5578 100.349 56.5578C100.165 56.5578 99.9993 56.5164 99.8529 56.4338C99.7088 56.3511 99.5955 56.2342 99.5128 56.0831C99.4302 55.9296 99.3888 55.7524 99.3888 55.5517C99.3888 55.351 99.429 55.175 99.5093 55.0239C99.5896 54.8727 99.7018 54.757 99.8458 54.6767C99.9922 54.5941 100.16 54.5527 100.349 54.5527C100.533 54.5527 100.696 54.5929 100.838 54.6732C100.979 54.7535 101.088 54.8645 101.164 55.0062C101.242 55.1455 101.281 55.3037 101.281 55.4809ZM100.948 55.4135C100.948 55.2907 100.92 55.1856 100.866 55.0983C100.812 55.0085 100.737 54.9412 100.643 54.8963C100.551 54.8491 100.448 54.8255 100.335 54.8255C100.172 54.8255 100.032 54.8775 99.9167 54.9814C99.8033 55.0853 99.7384 55.2293 99.7218 55.4135H100.948Z" fill="white"/>
<path d="M28.5157 54.0568L27.8001 56.5259H27.4388L26.8649 54.5386L26.2698 56.5259L25.912 56.5294L25.2212 54.0568H25.5649L26.1033 56.1504L26.6984 54.0568H27.0598L27.6266 56.1433L28.1686 54.0568H28.5157ZM30.6397 55.4809C30.6397 55.5423 30.6362 55.6072 30.6291 55.6757H29.0775C29.0893 55.867 29.1543 56.0169 29.2723 56.1256C29.3928 56.2319 29.538 56.285 29.7081 56.285C29.8474 56.285 29.9631 56.2531 30.0552 56.1893C30.1497 56.1232 30.2158 56.0358 30.2536 55.9272H30.6008C30.5488 56.1138 30.4449 56.2661 30.289 56.3842C30.1332 56.4999 29.9395 56.5578 29.7081 56.5578C29.5239 56.5578 29.3585 56.5164 29.2121 56.4338C29.0681 56.3511 28.9547 56.2342 28.8721 56.0831C28.7894 55.9296 28.7481 55.7524 28.7481 55.5517C28.7481 55.351 28.7882 55.175 28.8685 55.0239C28.9488 54.8727 29.061 54.757 29.205 54.6767C29.3515 54.5941 29.5191 54.5527 29.7081 54.5527C29.8923 54.5527 30.0552 54.5929 30.1969 54.6732C30.3386 54.7535 30.4473 54.8645 30.5228 55.0062C30.6008 55.1455 30.6397 55.3037 30.6397 55.4809ZM30.3067 55.4135C30.3067 55.2907 30.2796 55.1856 30.2253 55.0983C30.171 55.0085 30.0966 54.9412 30.0021 54.8963C29.91 54.8491 29.8073 54.8255 29.6939 54.8255C29.5309 54.8255 29.3916 54.8775 29.2759 54.9814C29.1625 55.0853 29.0976 55.2293 29.0811 55.4135H30.3067ZM30.9448 55.5482C30.9448 55.3498 30.985 55.1762 31.0653 55.0274C31.1455 54.8763 31.2554 54.7594 31.3947 54.6767C31.5364 54.5941 31.6946 54.5527 31.8694 54.5527C32.0205 54.5527 32.1611 54.5881 32.2909 54.659C32.4208 54.7275 32.52 54.8184 32.5885 54.9318V53.9045H32.9144V56.5259H32.5885V56.161C32.5248 56.2767 32.4303 56.3724 32.3051 56.4479C32.18 56.5212 32.0335 56.5578 31.8659 56.5578C31.6935 56.5578 31.5364 56.5153 31.3947 56.4302C31.2554 56.3452 31.1455 56.2259 31.0653 56.0724C30.985 55.9189 30.9448 55.7442 30.9448 55.5482ZM32.5885 55.5517C32.5885 55.4053 32.559 55.2777 32.5 55.1691C32.4409 55.0605 32.3606 54.9778 32.2591 54.9211C32.1599 54.8621 32.0501 54.8326 31.9296 54.8326C31.8092 54.8326 31.6994 54.8609 31.6002 54.9176C31.501 54.9743 31.4219 55.0569 31.3628 55.1656C31.3038 55.2742 31.2743 55.4017 31.2743 55.5482C31.2743 55.6969 31.3038 55.8268 31.3628 55.9378C31.4219 56.0465 31.501 56.1303 31.6002 56.1893C31.6994 56.246 31.8092 56.2744 31.9296 56.2744C32.0501 56.2744 32.1599 56.246 32.2591 56.1893C32.3606 56.1303 32.4409 56.0465 32.5 55.9378C32.559 55.8268 32.5885 55.6981 32.5885 55.5517Z" fill="#A4A8AB"/>
<path d="M107.808 54.0568L107.093 56.5259H106.731L106.157 54.5386L105.562 56.5259L105.204 56.5294L104.514 54.0568H104.857L105.396 56.1504L105.991 54.0568H106.352L106.919 56.1433L107.461 54.0568H107.808ZM109.932 55.4809C109.932 55.5423 109.929 55.6072 109.922 55.6757H108.37C108.382 55.867 108.447 56.0169 108.565 56.1256C108.685 56.2319 108.831 56.285 109.001 56.285C109.14 56.285 109.256 56.2531 109.348 56.1893C109.442 56.1232 109.508 56.0358 109.546 55.9272H109.893C109.841 56.1138 109.737 56.2661 109.582 56.3842C109.426 56.4999 109.232 56.5578 109.001 56.5578C108.816 56.5578 108.651 56.5164 108.505 56.4338C108.361 56.3511 108.247 56.2342 108.165 56.0831C108.082 55.9296 108.041 55.7524 108.041 55.5517C108.041 55.351 108.081 55.175 108.161 55.0239C108.241 54.8727 108.353 54.757 108.498 54.6767C108.644 54.5941 108.812 54.5527 109.001 54.5527C109.185 54.5527 109.348 54.5929 109.489 54.6732C109.631 54.7535 109.74 54.8645 109.815 55.0062C109.893 55.1455 109.932 55.3037 109.932 55.4809ZM109.599 55.4135C109.599 55.2907 109.572 55.1856 109.518 55.0983C109.463 55.0085 109.389 54.9412 109.295 54.8963C109.202 54.8491 109.1 54.8255 108.986 54.8255C108.823 54.8255 108.684 54.8775 108.568 54.9814C108.455 55.0853 108.39 55.2293 108.374 55.4135H109.599ZM110.237 55.5482C110.237 55.3498 110.277 55.1762 110.358 55.0274C110.438 54.8763 110.548 54.7594 110.687 54.6767C110.829 54.5941 110.987 54.5527 111.162 54.5527C111.313 54.5527 111.454 54.5881 111.583 54.659C111.713 54.7275 111.813 54.8184 111.881 54.9318V53.9045H112.207V56.5259H111.881V56.161C111.817 56.2767 111.723 56.3724 111.598 56.4479C111.472 56.5212 111.326 56.5578 111.158 56.5578C110.986 56.5578 110.829 56.5153 110.687 56.4302C110.548 56.3452 110.438 56.2259 110.358 56.0724C110.277 55.9189 110.237 55.7442 110.237 55.5482ZM111.881 55.5517C111.881 55.4053 111.851 55.2777 111.792 55.1691C111.733 55.0605 111.653 54.9778 111.552 54.9211C111.452 54.8621 111.343 54.8326 111.222 54.8326C111.102 54.8326 110.992 54.8609 110.893 54.9176C110.793 54.9743 110.714 55.0569 110.655 55.1656C110.596 55.2742 110.567 55.4017 110.567 55.5482C110.567 55.6969 110.596 55.8268 110.655 55.9378C110.714 56.0465 110.793 56.1303 110.893 56.1893C110.992 56.246 111.102 56.2744 111.222 56.2744C111.343 56.2744 111.452 56.246 111.552 56.1893C111.653 56.1303 111.733 56.0465 111.792 55.9378C111.851 55.8268 111.881 55.6981 111.881 55.5517Z" fill="#A4A8AB"/>
<path d="M37.5888 54.0568V54.3189H36.9157V56.5259H36.5934V54.3189H35.9168V54.0568H37.5888ZM38.9492 54.5492C39.0956 54.5492 39.2278 54.5811 39.3459 54.6448C39.464 54.7062 39.5561 54.7995 39.6222 54.9247C39.6907 55.0499 39.725 55.2022 39.725 55.3817V56.5259H39.4061V55.4277C39.4061 55.2341 39.3577 55.0865 39.2609 54.9849C39.1641 54.881 39.0318 54.829 38.8641 54.829C38.6941 54.829 38.5583 54.8822 38.4568 54.9884C38.3576 55.0947 38.308 55.2494 38.308 55.4525V56.5259H37.9856V53.9045H38.308V54.8609C38.3717 54.7617 38.4591 54.685 38.5701 54.6307C38.6835 54.5763 38.8098 54.5492 38.9492 54.5492ZM41.9732 54.5846V56.5259H41.6508V56.2389C41.5894 56.3381 41.5032 56.4161 41.3922 56.4727C41.2836 56.5271 41.1631 56.5542 41.0309 56.5542C40.8797 56.5542 40.7439 56.5235 40.6235 56.4621C40.5031 56.3984 40.4074 56.3039 40.3366 56.1787C40.2681 56.0535 40.2338 55.9012 40.2338 55.7217V54.5846H40.5527V55.6792C40.5527 55.8705 40.6011 56.0181 40.6979 56.122C40.7947 56.2236 40.927 56.2744 41.0947 56.2744C41.2671 56.2744 41.4028 56.2212 41.502 56.115C41.6012 56.0087 41.6508 55.854 41.6508 55.6509V54.5846H41.9732Z" fill="#A4A8AB"/>
<path d="M116.553 54.0568V54.3189H115.88V56.5259H115.557V54.3189H114.881V54.0568H116.553ZM117.913 54.5492C118.059 54.5492 118.192 54.5811 118.31 54.6448C118.428 54.7062 118.52 54.7995 118.586 54.9247C118.655 55.0499 118.689 55.2022 118.689 55.3817V56.5259H118.37V55.4277C118.37 55.2341 118.322 55.0865 118.225 54.9849C118.128 54.881 117.996 54.829 117.828 54.829C117.658 54.829 117.522 54.8822 117.421 54.9884C117.321 55.0947 117.272 55.2494 117.272 55.4525V56.5259H116.949V53.9045H117.272V54.8609C117.336 54.7617 117.423 54.685 117.534 54.6307C117.647 54.5763 117.774 54.5492 117.913 54.5492ZM120.937 54.5846V56.5259H120.615V56.2389C120.553 56.3381 120.467 56.4161 120.356 56.4727C120.247 56.5271 120.127 56.5542 119.995 56.5542C119.844 56.5542 119.708 56.5235 119.587 56.4621C119.467 56.3984 119.371 56.3039 119.3 56.1787C119.232 56.0535 119.198 55.9012 119.198 55.7217V54.5846H119.517V55.6792C119.517 55.8705 119.565 56.0181 119.662 56.122C119.759 56.2236 119.891 56.2744 120.059 56.2744C120.231 56.2744 120.367 56.2212 120.466 56.115C120.565 56.0087 120.615 55.854 120.615 55.6509V54.5846H120.937Z" fill="#A4A8AB"/>
<path d="M48.0573 54.0568V54.3189H46.9839V55.1514H47.8553V55.4135H46.9839V56.5259H46.6615V54.0568H48.0573ZM48.769 54.8999C48.8256 54.7889 48.9059 54.7027 49.0098 54.6413C49.1161 54.5799 49.2448 54.5492 49.396 54.5492V54.8822H49.311C48.9496 54.8822 48.769 55.0782 48.769 55.4702V56.5259H48.4466V54.5846H48.769V54.8999ZM49.9346 54.2693C49.8732 54.2693 49.8212 54.2481 49.7787 54.2056C49.7362 54.1631 49.715 54.1111 49.715 54.0497C49.715 53.9883 49.7362 53.9363 49.7787 53.8938C49.8212 53.8513 49.8732 53.8301 49.9346 53.8301C49.9936 53.8301 50.0432 53.8513 50.0834 53.8938C50.1259 53.9363 50.1471 53.9883 50.1471 54.0497C50.1471 54.1111 50.1259 54.1631 50.0834 54.2056C50.0432 54.2481 49.9936 54.2693 49.9346 54.2693ZM50.0905 54.5846V56.5259H49.7681V54.5846H50.0905Z" fill="#A4A8AB"/>
<path d="M56.4357 56.5507C56.2727 56.5507 56.1263 56.5223 55.9964 56.4657C55.8689 56.4066 55.7685 56.3263 55.6953 56.2248C55.6221 56.1209 55.5843 56.0016 55.5819 55.867H55.9255C55.9374 55.9827 55.9846 56.0807 56.0672 56.161C56.1523 56.2389 56.2751 56.2779 56.4357 56.2779C56.5892 56.2779 56.7096 56.2401 56.797 56.1645C56.8867 56.0866 56.9316 55.9874 56.9316 55.867C56.9316 55.7725 56.9056 55.6958 56.8537 55.6367C56.8017 55.5777 56.7368 55.5328 56.6588 55.5021C56.5809 55.4714 56.4758 55.4383 56.3436 55.4029C56.1806 55.3604 56.0495 55.3179 55.9503 55.2754C55.8535 55.2329 55.7697 55.1668 55.6988 55.077C55.6303 54.9849 55.5961 54.8621 55.5961 54.7086C55.5961 54.574 55.6303 54.4547 55.6988 54.3508C55.7673 54.2469 55.863 54.1666 55.9858 54.1099C56.1109 54.0532 56.2538 54.0249 56.4144 54.0249C56.6458 54.0249 56.8348 54.0828 56.9812 54.1985C57.13 54.3142 57.2138 54.4677 57.2327 54.659H56.8785C56.8667 54.5645 56.8171 54.4819 56.7297 54.411C56.6423 54.3378 56.5266 54.3012 56.3825 54.3012C56.2479 54.3012 56.1381 54.3366 56.0531 54.4075C55.9681 54.476 55.9255 54.5728 55.9255 54.698C55.9255 54.7877 55.9503 54.8609 55.9999 54.9176C56.0519 54.9743 56.1145 55.018 56.1877 55.0487C56.2633 55.077 56.3684 55.1101 56.503 55.1479C56.6659 55.1927 56.797 55.2376 56.8962 55.2825C56.9954 55.325 57.0804 55.3923 57.1512 55.4844C57.2221 55.5741 57.2575 55.6969 57.2575 55.8528C57.2575 55.9733 57.2256 56.0866 57.1619 56.1929C57.0981 56.2992 57.0036 56.3854 56.8785 56.4515C56.7533 56.5176 56.6057 56.5507 56.4357 56.5507ZM57.6115 55.5482C57.6115 55.3498 57.6516 55.1762 57.7319 55.0274C57.8122 54.8763 57.922 54.7594 58.0613 54.6767C58.203 54.5941 58.3601 54.5527 58.5325 54.5527C58.7025 54.5527 58.8501 54.5893 58.9753 54.6625C59.1005 54.7358 59.1938 54.8279 59.2552 54.9389V54.5846H59.5811V56.5259H59.2552V56.1645C59.1914 56.2779 59.0957 56.3724 58.9682 56.4479C58.8431 56.5212 58.6966 56.5578 58.529 56.5578C58.3566 56.5578 58.2007 56.5153 58.0613 56.4302C57.922 56.3452 57.8122 56.2259 57.7319 56.0724C57.6516 55.9189 57.6115 55.7442 57.6115 55.5482ZM59.2552 55.5517C59.2552 55.4053 59.2256 55.2777 59.1666 55.1691C59.1076 55.0605 59.0273 54.9778 58.9257 54.9211C58.8265 54.8621 58.7167 54.8326 58.5963 54.8326C58.4758 54.8326 58.366 54.8609 58.2668 54.9176C58.1676 54.9743 58.0885 55.0569 58.0295 55.1656C57.9704 55.2742 57.9409 55.4017 57.9409 55.5482C57.9409 55.6969 57.9704 55.8268 58.0295 55.9378C58.0885 56.0465 58.1676 56.1303 58.2668 56.1893C58.366 56.246 58.4758 56.2744 58.5963 56.2744C58.7167 56.2744 58.8265 56.246 58.9257 56.1893C59.0273 56.1303 59.1076 56.0465 59.1666 55.9378C59.2256 55.8268 59.2552 55.6981 59.2552 55.5517ZM60.519 54.8503V55.9945C60.519 56.089 60.5391 56.1563 60.5793 56.1964C60.6194 56.2342 60.6891 56.2531 60.7883 56.2531H61.0256V56.5259H60.7351C60.5557 56.5259 60.421 56.4846 60.3313 56.4019C60.2416 56.3192 60.1967 56.1834 60.1967 55.9945V54.8503H59.9452V54.5846H60.1967V54.0957H60.519V54.5846H61.0256V54.8503H60.519Z" fill="#A4A8AB"/>
<path d="M66.382 56.5507C66.219 56.5507 66.0726 56.5223 65.9427 56.4657C65.8152 56.4066 65.7148 56.3263 65.6416 56.2248C65.5684 56.1209 65.5306 56.0016 65.5283 55.867H65.8719C65.8837 55.9827 65.9309 56.0807 66.0136 56.161C66.0986 56.2389 66.2214 56.2779 66.382 56.2779C66.5355 56.2779 66.6559 56.2401 66.7433 56.1645C66.8331 56.0866 66.8779 55.9874 66.8779 55.867C66.8779 55.7725 66.852 55.6958 66.8 55.6367C66.748 55.5777 66.6831 55.5328 66.6052 55.5021C66.5272 55.4714 66.4221 55.4383 66.2899 55.4029C66.1269 55.3604 65.9959 55.3179 65.8967 55.2754C65.7998 55.2329 65.716 55.1668 65.6452 55.077C65.5767 54.9849 65.5424 54.8621 65.5424 54.7086C65.5424 54.574 65.5767 54.4547 65.6452 54.3508C65.7136 54.2469 65.8093 54.1666 65.9321 54.1099C66.0573 54.0532 66.2001 54.0249 66.3607 54.0249C66.5922 54.0249 66.7811 54.0828 66.9275 54.1985C67.0763 54.3142 67.1602 54.4677 67.179 54.659H66.8248C66.813 54.5645 66.7634 54.4819 66.676 54.411C66.5886 54.3378 66.4729 54.3012 66.3289 54.3012C66.1942 54.3012 66.0844 54.3366 65.9994 54.4075C65.9144 54.476 65.8719 54.5728 65.8719 54.698C65.8719 54.7877 65.8967 54.8609 65.9463 54.9176C65.9982 54.9743 66.0608 55.018 66.134 55.0487C66.2096 55.077 66.3147 55.1101 66.4493 55.1479C66.6123 55.1927 66.7433 55.2376 66.8425 55.2825C66.9417 55.325 67.0267 55.3923 67.0976 55.4844C67.1684 55.5741 67.2038 55.6969 67.2038 55.8528C67.2038 55.9733 67.172 56.0866 67.1082 56.1929C67.0444 56.2992 66.95 56.3854 66.8248 56.4515C66.6996 56.5176 66.552 56.5507 66.382 56.5507ZM69.3999 54.5846V56.5259H69.0775V56.2389C69.0161 56.3381 68.9299 56.4161 68.8189 56.4727C68.7103 56.5271 68.5898 56.5542 68.4576 56.5542C68.3064 56.5542 68.1706 56.5235 68.0502 56.4621C67.9297 56.3984 67.8341 56.3039 67.7633 56.1787C67.6948 56.0535 67.6605 55.9012 67.6605 55.7217V54.5846H67.9793V55.6792C67.9793 55.8705 68.0278 56.0181 68.1246 56.122C68.2214 56.2236 68.3537 56.2744 68.5213 56.2744C68.6937 56.2744 68.8295 56.2212 68.9287 56.115C69.0279 56.0087 69.0775 55.854 69.0775 55.6509V54.5846H69.3999ZM70.89 54.5492C71.1262 54.5492 71.3175 54.6212 71.4639 54.7653C71.6103 54.907 71.6835 55.1124 71.6835 55.3817V56.5259H71.3647V55.4277C71.3647 55.2341 71.3163 55.0865 71.2195 54.9849C71.1226 54.881 70.9904 54.829 70.8227 54.829C70.6527 54.829 70.5169 54.8822 70.4153 54.9884C70.3161 55.0947 70.2665 55.2494 70.2665 55.4525V56.5259H69.9442V54.5846H70.2665V54.8609C70.3303 54.7617 70.4165 54.685 70.5251 54.6307C70.6361 54.5763 70.7578 54.5492 70.89 54.5492Z" fill="#A4A8AB"/>
<path d="M76.3305 54.0745V56.5259H76.0081V54.698L75.1933 56.5259H74.9666L74.1483 54.6944V56.5259H73.8259V54.0745H74.1731L75.08 56.1008L75.9869 54.0745H76.3305ZM77.7238 56.5578C77.542 56.5578 77.3767 56.5164 77.2279 56.4338C77.0815 56.3511 76.9657 56.2342 76.8807 56.0831C76.7981 55.9296 76.7567 55.7524 76.7567 55.5517C76.7567 55.3533 76.7992 55.1786 76.8843 55.0274C76.9716 54.8739 77.0897 54.757 77.2385 54.6767C77.3873 54.5941 77.5538 54.5527 77.738 54.5527C77.9222 54.5527 78.0887 54.5941 78.2375 54.6767C78.3863 54.757 78.5032 54.8727 78.5882 55.0239C78.6756 55.175 78.7193 55.351 78.7193 55.5517C78.7193 55.7524 78.6744 55.9296 78.5846 56.0831C78.4973 56.2342 78.378 56.3511 78.2269 56.4338C78.0757 56.5164 77.908 56.5578 77.7238 56.5578ZM77.7238 56.2744C77.8395 56.2744 77.9482 56.2472 78.0497 56.1929C78.1513 56.1386 78.2328 56.0571 78.2942 55.9485C78.3579 55.8398 78.3898 55.7076 78.3898 55.5517C78.3898 55.3958 78.3591 55.2636 78.2977 55.1549C78.2363 55.0463 78.156 54.966 78.0568 54.9141C77.9576 54.8597 77.8502 54.8326 77.7345 54.8326C77.6164 54.8326 77.5077 54.8597 77.4085 54.9141C77.3117 54.966 77.2338 55.0463 77.1747 55.1549C77.1157 55.2636 77.0862 55.3958 77.0862 55.5517C77.0862 55.7099 77.1145 55.8434 77.1712 55.952C77.2302 56.0606 77.3082 56.1421 77.405 56.1964C77.5018 56.2484 77.6081 56.2744 77.7238 56.2744ZM80.0889 54.5492C80.3251 54.5492 80.5164 54.6212 80.6628 54.7653C80.8093 54.907 80.8825 55.1124 80.8825 55.3817V56.5259H80.5636V55.4277C80.5636 55.2341 80.5152 55.0865 80.4184 54.9849C80.3216 54.881 80.1893 54.829 80.0216 54.829C79.8516 54.829 79.7158 54.8822 79.6143 54.9884C79.5151 55.0947 79.4655 55.2494 79.4655 55.4525V56.5259H79.1431V54.5846H79.4655V54.8609C79.5292 54.7617 79.6154 54.685 79.7241 54.6307C79.8351 54.5763 79.9567 54.5492 80.0889 54.5492Z" fill="#A4A8AB"/>
<path d="M8.22559 50.8847C8.5546 48.2037 10.1997 43.0715 14.1479 43.9907C17.767 44.8333 19.9761 47.6018 21.8797 43.1699C23.3603 39.723 23.3603 36.1119 27.473 37.9174C31.5857 39.723 31.5857 37.0967 32.0792 36.1119C32.5727 35.127 33.2308 27.9048 37.6725 27.9048C42.1142 27.9048 43.2657 31.1876 43.5948 33.4856C43.9238 35.7836 43.7593 41.6927 47.872 41.2002C51.9847 40.7078 51.4911 36.6043 54.4523 36.1119C57.4134 35.6194 58.4005 38.7381 60.3746 41.5285C62.3486 44.3189 65.1453 44.1548 66.4613 41.2002C67.7774 38.2457 68.929 30.6952 74.0287 31.0235C77.0517 31.2181 78.7986 36.3445 81.0722 37.6121C83.4056 38.9131 84.8014 35.8066 85.8733 33.3215C88.5054 27.2188 91.631 30.2258 92.9471 36.1119C94.2632 41.998 99.1418 43.1699 101.666 38.2457C104.19 33.3215 109.069 36.9326 110.22 40.0161C111.372 43.0997 115.156 46.6169 116.801 41.3644" stroke="#0CAF60" stroke-width="0.442809" stroke-linecap="round"/>
<path d="M21.8797 43.1699C19.9761 47.6018 17.767 44.8333 14.1479 43.9907C10.1997 43.0716 8.55463 48.2037 8.22559 50.8847L116.801 50.8846V41.3644C115.156 46.6169 111.372 43.0997 110.22 40.0161C109.069 36.9326 104.19 33.3215 101.666 38.2457C99.1418 43.1699 94.2632 41.998 92.9471 36.1119C91.631 30.2258 88.5054 27.2188 85.8733 33.3215C84.8014 35.8066 83.2411 38.8214 81.0722 37.6121C78.7986 36.3445 77.0517 31.2181 74.0287 31.0235C68.929 30.6952 67.7774 38.2457 66.4613 41.2002C65.1453 44.1548 62.3486 44.3189 60.3745 41.5285C58.4005 38.7381 57.4134 35.6194 54.4523 36.1119C51.4911 36.6043 51.9847 40.7078 47.872 41.2002C43.7593 41.6927 43.9238 35.7836 43.5948 33.4856C43.2657 31.1876 42.1142 27.9048 37.6725 27.9048C33.2308 27.9048 32.5727 35.127 32.0792 36.1119C31.5857 37.0967 31.5857 39.723 27.473 37.9174C23.3603 36.1119 23.3603 39.723 21.8797 43.1699Z" fill="url(#paint0_linear_1_7995)" fill-opacity="0.5"/>
<rect x="82.2539" y="51.541" width="10.1995" height="35.7828" transform="rotate(-180 82.2539 51.541)" fill="url(#paint1_linear_1_7995)" fill-opacity="0.2"/>
<line x1="77.5403" y1="18.6057" x2="77.5403" y2="50.6629" stroke="#0CAF60" stroke-width="0.442809" stroke-linecap="round" stroke-dasharray="2.66 2.66"/>
<path d="M77.3189 31.1794C78.5929 31.1794 79.6282 32.2103 79.6282 33.4851C79.6282 34.7598 78.5929 35.7907 77.3189 35.7907C76.0449 35.7907 75.0096 34.7598 75.0096 33.4851C75.0096 32.2103 76.0449 31.1794 77.3189 31.1794Z" fill="#0CAF60" stroke="#1D252F" stroke-width="1.32843"/>
<ellipse cx="0.658031" cy="0.656566" rx="0.658031" ry="0.656566" transform="matrix(1 0 0 -1 76.6606 34.1416)" fill="white"/>
<path d="M11.5201 9.40353C11.7988 9.45549 12.0278 9.59483 12.2073 9.82154C12.3868 10.0483 12.4765 10.308 12.4765 10.6009C12.4765 10.8654 12.4104 11.0992 12.2782 11.3023C12.1506 11.5007 11.9641 11.6565 11.7185 11.7699C11.4728 11.8833 11.1824 11.9399 10.847 11.9399H8.71445V6.99465H10.7549C11.0903 6.99465 11.3784 7.04897 11.6193 7.15761C11.8649 7.26624 12.0491 7.41739 12.1719 7.61104C12.2994 7.8047 12.3632 8.02433 12.3632 8.26994C12.3632 8.55806 12.2853 8.79895 12.1294 8.99261C11.9782 9.18626 11.7751 9.32324 11.5201 9.40353ZM9.70634 9.03512H10.6132C10.8494 9.03512 11.0312 8.98316 11.1588 8.87925C11.2863 8.77061 11.35 8.61711 11.35 8.41873C11.35 8.22035 11.2863 8.06684 11.1588 7.95821C11.0312 7.84957 10.8494 7.79525 10.6132 7.79525H9.70634V9.03512ZM10.7053 11.1323C10.9462 11.1323 11.1328 11.0756 11.265 10.9622C11.402 10.8489 11.4705 10.6883 11.4705 10.4804C11.4705 10.2679 11.3996 10.1026 11.2579 9.9845C11.1162 9.86169 10.9249 9.80029 10.6841 9.80029H9.70634V11.1323H10.7053ZM13.012 9.96324C13.012 9.56649 13.0899 9.2146 13.2458 8.90759C13.4064 8.60057 13.6213 8.36441 13.8905 8.19909C14.1645 8.03378 14.4692 7.95112 14.8045 7.95112C15.0973 7.95112 15.3524 8.01016 15.5697 8.12824C15.7917 8.24633 15.9688 8.39511 16.101 8.5746V8.01489H17.1V11.9399H16.101V11.3661C15.9735 11.5503 15.7964 11.7038 15.5697 11.8266C15.3477 11.9447 15.0903 12.0037 14.7974 12.0037C14.4668 12.0037 14.1645 11.9187 13.8905 11.7486C13.6213 11.5786 13.4064 11.3401 13.2458 11.0331C13.0899 10.7213 13.012 10.3647 13.012 9.96324ZM16.101 9.97741C16.101 9.73653 16.0538 9.53106 15.9593 9.36102C15.8649 9.18626 15.7374 9.05401 15.5768 8.96427C15.4162 8.8698 15.2438 8.82257 15.0596 8.82257C14.8754 8.82257 14.7053 8.86744 14.5494 8.95718C14.3936 9.04693 14.266 9.17918 14.1669 9.35394C14.0724 9.52398 14.0252 9.72708 14.0252 9.96324C14.0252 10.1994 14.0724 10.4072 14.1669 10.5867C14.266 10.7615 14.3936 10.8961 14.5494 10.9906C14.71 11.085 14.8801 11.1323 15.0596 11.1323C15.2438 11.1323 15.4162 11.0874 15.5768 10.9976C15.7374 10.9032 15.8649 10.7709 15.9593 10.6009C16.0538 10.4261 16.101 10.2183 16.101 9.97741ZM19.0607 6.69709V11.9399H18.0688V6.69709H19.0607ZM19.7856 9.96324C19.7856 9.56649 19.8635 9.2146 20.0194 8.90759C20.18 8.60057 20.3949 8.36441 20.6641 8.19909C20.9381 8.03378 21.2427 7.95112 21.5781 7.95112C21.8709 7.95112 22.126 8.01016 22.3433 8.12824C22.5653 8.24633 22.7424 8.39511 22.8746 8.5746V8.01489H23.8736V11.9399H22.8746V11.3661C22.7471 11.5503 22.57 11.7038 22.3433 11.8266C22.1213 11.9447 21.8639 12.0037 21.571 12.0037C21.2404 12.0037 20.9381 11.9187 20.6641 11.7486C20.3949 11.5786 20.18 11.3401 20.0194 11.0331C19.8635 10.7213 19.7856 10.3647 19.7856 9.96324ZM22.8746 9.97741C22.8746 9.73653 22.8274 9.53106 22.7329 9.36102C22.6385 9.18626 22.5109 9.05401 22.3504 8.96427C22.1898 8.8698 22.0174 8.82257 21.8331 8.82257C21.6489 8.82257 21.4789 8.86744 21.323 8.95718C21.1672 9.04693 21.0396 9.17918 20.9404 9.35394C20.846 9.52398 20.7987 9.72708 20.7987 9.96324C20.7987 10.1994 20.846 10.4072 20.9404 10.5867C21.0396 10.7615 21.1672 10.8961 21.323 10.9906C21.4836 11.085 21.6537 11.1323 21.8331 11.1323C22.0174 11.1323 22.1898 11.0874 22.3504 10.9976C22.5109 10.9032 22.6385 10.7709 22.7329 10.6009C22.8274 10.4261 22.8746 10.2183 22.8746 9.97741ZM27.0174 7.95821C27.485 7.95821 27.8629 8.10699 28.151 8.40456C28.4392 8.6974 28.5832 9.10833 28.5832 9.63734V11.9399H27.5913V9.77195C27.5913 9.46021 27.5134 9.22169 27.3575 9.05637C27.2017 8.88633 26.9891 8.80131 26.7199 8.80131C26.4459 8.80131 26.2287 8.88633 26.0681 9.05637C25.9122 9.22169 25.8343 9.46021 25.8343 9.77195V11.9399H24.8424V8.01489H25.8343V8.50375C25.9665 8.33371 26.1342 8.20146 26.3373 8.10699C26.5451 8.0078 26.7718 7.95821 27.0174 7.95821ZM29.2714 9.97741C29.2714 9.57121 29.3541 9.21696 29.5194 8.91467C29.6847 8.60766 29.9138 8.37149 30.2066 8.20618C30.4994 8.03614 30.8348 7.95112 31.2127 7.95112C31.6992 7.95112 32.1006 8.07393 32.4171 8.31954C32.7383 8.56043 32.9532 8.9005 33.0618 9.33977H31.992C31.9353 9.16973 31.8385 9.03748 31.7015 8.94301C31.5693 8.84382 31.404 8.79423 31.2056 8.79423C30.9222 8.79423 30.6978 8.89814 30.5325 9.10597C30.3672 9.30907 30.2845 9.59955 30.2845 9.97741C30.2845 10.3506 30.3672 10.641 30.5325 10.8489C30.6978 11.052 30.9222 11.1535 31.2056 11.1535C31.6071 11.1535 31.8692 10.974 31.992 10.6151H33.0618C32.9532 11.0402 32.7383 11.3779 32.4171 11.6282C32.0959 11.8785 31.6944 12.0037 31.2127 12.0037C30.8348 12.0037 30.4994 11.921 30.2066 11.7557C29.9138 11.5857 29.6847 11.3495 29.5194 11.0472C29.3541 10.7402 29.2714 10.3836 29.2714 9.97741ZM37.4372 9.89239C37.4372 10.0341 37.4278 10.1616 37.4089 10.275H34.5395C34.5631 10.5584 34.6623 10.7804 34.8371 10.941C35.0118 11.1016 35.2267 11.1819 35.4818 11.1819C35.8502 11.1819 36.1123 11.0236 36.2682 10.7072H37.338C37.2247 11.085 37.0074 11.3968 36.6862 11.6424C36.365 11.8833 35.9706 12.0037 35.503 12.0037C35.1252 12.0037 34.7851 11.921 34.4828 11.7557C34.1852 11.5857 33.9514 11.3472 33.7814 11.0402C33.6161 10.7331 33.5334 10.3789 33.5334 9.97741C33.5334 9.57121 33.6161 9.2146 33.7814 8.90759C33.9467 8.60057 34.1782 8.36441 34.4757 8.19909C34.7733 8.03378 35.1157 7.95112 35.503 7.95112C35.8762 7.95112 36.2092 8.03142 36.502 8.19201C36.7996 8.3526 37.0287 8.58168 37.1893 8.87925C37.3546 9.17209 37.4372 9.50981 37.4372 9.89239ZM36.4099 9.609C36.4052 9.35394 36.3131 9.15084 36.1336 8.99969C35.9541 8.84382 35.7345 8.76589 35.4747 8.76589C35.2291 8.76589 35.0213 8.84146 34.8512 8.99261C34.6859 9.13903 34.5844 9.34449 34.5466 9.609H36.4099Z" fill="white"/>
<defs>
<linearGradient id="paint0_linear_1_7995" x1="62.5132" y1="27.9048" x2="62.5132" y2="50.8847" gradientUnits="userSpaceOnUse">
<stop stop-color="#12BE73" stop-opacity="0.9"/>
<stop offset="1" stop-color="#161D26" stop-opacity="0"/>
</linearGradient>
<linearGradient id="paint1_linear_1_7995" x1="87.3537" y1="88.1724" x2="87.3536" y2="49.7731" gradientUnits="userSpaceOnUse">
<stop offset="0.230444" stop-color="#12BE73"/>
<stop offset="0.893207" stop-color="#12181F" stop-opacity="0"/>
</linearGradient>
</defs>
</svg>
