<svg width="17" height="17" viewBox="0 0 17 17" fill="none" xmlns="http://www.w3.org/2000/svg">
<path d="M8.26669 14.2168C7.10297 14.2168 5.96538 13.8649 4.99778 13.2056C4.03019 12.5463 3.27603 11.6093 2.8307 10.5129C2.38536 9.41654 2.26884 8.21014 2.49587 7.04626C2.7229 5.88237 3.28329 4.81327 4.10616 3.97416C4.92904 3.13504 5.97744 2.5636 7.1188 2.33209C8.26016 2.10058 9.44321 2.2194 10.5183 2.67352C11.5935 3.12765 12.5124 3.89668 13.1589 4.88338C13.8055 5.87007 14.1506 7.03011 14.1506 8.2168C14.1506 9.8081 13.5307 11.3342 12.4272 12.4594C11.3238 13.5847 9.82719 14.2168 8.26669 14.2168ZM8.26669 13.0168C9.19766 13.0168 10.1077 12.7353 10.8818 12.2079C11.6559 11.6804 12.2592 10.9308 12.6155 10.0537C12.9717 9.1766 13.065 8.21148 12.8833 7.28037C12.7017 6.34926 12.2534 5.49398 11.5951 4.82269C10.9368 4.1514 10.0981 3.69424 9.185 3.50903C8.27191 3.32382 7.32547 3.41888 6.46536 3.78218C5.60525 4.14548 4.8701 4.76071 4.35288 5.55006C3.83566 6.33942 3.55959 7.26745 3.55959 8.2168C3.55959 9.48984 4.05551 10.7107 4.93827 11.6109C5.82102 12.5111 7.01829 13.0168 8.26669 13.0168V13.0168ZM7.6783 10.6168L5.18354 8.0708L6.0112 7.2228L7.6783 8.9168L11.0125 5.5258L11.8451 6.3738L7.6783 10.6168Z" fill="#C4C4C4"/>
</svg>
