<svg width="177" height="137" viewBox="0 0 177 137" fill="none" xmlns="http://www.w3.org/2000/svg">
<path d="M1.96581 37.1895C2.00181 37.1845 2.03799 37.1815 2.07299 37.1785C2.57328 35.3835 3.59439 33.777 5.00731 32.5621C6.42023 31.3471 8.16149 30.5783 10.0112 30.3526C11.8609 30.1269 13.736 30.4545 15.3996 31.294C17.0632 32.1336 18.4407 33.4473 19.3579 35.0694C19.2335 35.2336 19.1359 35.4166 19.0688 35.6114C18.3184 34.1626 17.1853 32.9472 15.7925 32.0972C14.3997 31.2473 12.8006 30.7955 11.1689 30.7906C10.7241 30.7912 10.2798 30.8245 9.83983 30.8905C8.13316 31.146 6.53728 31.8909 5.24535 33.035C3.95342 34.1791 3.02105 35.6732 2.56102 37.3365C2.39525 37.3398 2.23114 37.3712 2.07592 37.4295C2.07728 37.5169 2.08429 37.604 2.09691 37.6905L2.04198 37.6966C1.57213 37.767 1.14934 38.0207 0.866443 38.4024C0.583548 38.7841 0.463616 39.2625 0.532947 39.7325C0.591964 40.1185 0.774959 40.4747 1.05419 40.7476C1.33342 41.0205 1.69359 41.1953 2.0808 41.2454C2.2148 41.2604 2.36603 41.2685 2.41503 41.2755C2.85945 43.5314 4.14362 45.5344 6.00829 46.8797C7.87296 48.225 10.179 48.8122 12.4599 48.5225C14.7981 48.175 16.9024 46.913 18.31 45.014C19.7177 43.115 20.3132 40.7347 19.9658 38.3966C19.9488 38.2856 19.9289 38.1745 19.9079 38.0635C20.0804 38.1565 20.2668 38.2206 20.4599 38.2535C20.4599 38.2765 20.4689 38.2986 20.4719 38.3216C20.8225 40.6775 20.2676 43.0786 18.9189 45.0418C17.5702 47.005 15.5277 48.3845 13.2029 48.9024V52.8885H12.6909V49.0015C12.6389 49.0105 12.5909 49.0214 12.5339 49.0284C12.0734 49.0961 11.6083 49.1296 11.1428 49.1285C10.7223 49.1285 10.3024 49.0992 9.88597 49.0406V52.8846H9.37401V48.9515C7.58341 48.5782 5.93644 47.7017 4.6267 46.4249C3.31695 45.1481 2.39879 43.524 1.97997 41.7435C1.48835 41.6746 1.03222 41.4487 0.679676 41.0992C0.327129 40.7497 0.097034 40.2955 0.0239138 39.8045C-0.0645691 39.2003 0.0902728 38.5858 0.454334 38.0955C0.818395 37.6053 1.36184 37.2795 1.96581 37.1895Z" fill="white"/>
<path d="M16.5209 33.9634L18.05 40.2324L15.7021 40.3193L15.683 39.8083L17.404 39.7444L16.0241 34.0852L16.5209 33.9634Z" fill="white"/>
<path d="M13.6671 42.0156L13.6119 42.5247C13.159 42.5261 12.7127 42.4177 12.3109 42.2087C11.9091 41.9997 11.5638 41.6964 11.305 41.3247C11.1466 40.9833 11.0635 40.6117 11.0616 40.2354C11.0597 39.859 11.1391 39.4865 11.294 39.1436L11.7591 39.3586C11.6384 39.6278 11.5751 39.9191 11.5736 40.2141C11.572 40.5091 11.6322 40.8011 11.7501 41.0715C11.9716 41.3699 12.2609 41.6112 12.5943 41.7754C12.9277 41.9396 13.2955 42.0219 13.6671 42.0156Z" fill="white"/>
<path d="M1.409 38.7834L1.35406 38.2746C1.64698 38.2133 1.95048 38.2248 2.23785 38.3083C2.52522 38.3918 2.7876 38.5449 3.00201 38.7536C3.18365 39.008 3.30953 39.2978 3.3714 39.6042C3.43326 39.9106 3.42961 40.2265 3.3609 40.5315L2.8609 40.4216C2.91148 40.1952 2.91614 39.9609 2.87457 39.7326C2.83301 39.5044 2.74611 39.2866 2.61896 39.0925C2.45653 38.9482 2.26207 38.845 2.05157 38.7912C1.84108 38.7375 1.62071 38.7347 1.409 38.7834Z" fill="white"/>
<path d="M125.663 136.794H176.257C176.257 136.794 177.188 128.918 162.682 124.911L129.282 125.111C126.67 127.966 125.998 132.404 125.663 136.794Z" fill="#0CAF60"/>
<path d="M79.475 136.794H132.613C132.613 136.794 133.591 128.918 118.355 124.911L83.298 125.111C80.756 128.336 79.827 132.404 79.475 136.794Z" fill="#0CAF60"/>
<path d="M132.358 136.796H132.87C132.838 131.434 127.28 128.31 127.043 128.179L126.796 128.627C126.852 128.656 132.328 131.738 132.358 136.796Z" fill="white"/>
<path d="M166.271 66.7664V0.419434L166.148 0.444336C160.194 4.30534 147.235 14.7735 146.466 33.1355C146.466 33.1345 145.573 51.4344 166.271 66.7664Z" fill="#0CAF60"/>
<path d="M69.364 17.9475L69.3491 17.9424L68.8281 17.8726C68.7971 17.8726 68.767 17.8726 68.737 17.8726C68.8829 17.6668 69.0689 17.4926 69.2839 17.3606C69.4989 17.2286 69.7384 17.1415 69.988 17.1045C70.677 17.0605 71.3549 17.6046 71.9809 18.7266C72.1729 18.6537 72.3757 18.6128 72.581 18.6055C72.4218 18.7781 72.2926 18.9761 72.1989 19.1914C72.1299 19.2142 72.063 19.2432 71.999 19.2776L71.7661 19.4175L71.6411 19.1765C71.0931 18.1225 70.5409 17.5855 70.0209 17.6155C69.7705 17.648 69.5387 17.7652 69.364 17.9475Z" fill="white"/>
<path d="M60.26 17.9863C59.693 18.6103 59.3279 20.5513 58.9429 23.1323C58.7677 23.1206 58.5918 23.1326 58.4199 23.1681C58.8339 20.3681 59.2109 18.3793 59.8809 17.6423C60.093 17.3424 60.3825 17.1057 60.7185 16.9575C61.0545 16.8092 61.4246 16.7548 61.7891 16.8002C62.7771 17.0062 63.4529 18.1901 63.7749 18.9001C64.1819 18.1771 65.0291 16.9452 66.0691 16.9452H66.1001C66.7001 16.9592 67.254 17.3793 67.75 18.1943C67.6372 18.2646 67.5343 18.3496 67.4441 18.4472C67.4291 18.4612 67.4171 18.4762 67.4021 18.4902C66.9821 17.7842 66.5359 17.4672 66.0879 17.4572H66.0691C65.1491 17.4572 64.251 19.0141 63.981 19.6191L63.7139 20.2192L63.5049 19.6013C63.3109 19.0293 62.6049 17.5013 61.6829 17.3083C61.407 17.2862 61.1304 17.3372 60.8806 17.4562C60.6308 17.5753 60.4167 17.7581 60.26 17.9863Z" fill="white"/>
<path d="M18.6989 59.5574C20.5396 59.8725 22.4035 60.033 24.2709 60.0374C31.3079 60.0374 40.195 57.6563 49.309 48.2083C49.503 48.0083 49.6909 47.7994 49.8759 47.5894C50.0478 47.6658 50.2286 47.7204 50.414 47.7522C50.176 48.0295 49.9306 48.2999 49.6779 48.5632C42.9929 55.4932 35.6019 59.4563 27.7089 60.3413C24.7028 60.668 21.6661 60.5768 18.685 60.0703C18.7271 59.9024 18.7318 59.7273 18.6989 59.5574Z" fill="white"/>
<path d="M37.6531 86.997C37.8071 86.872 53.2621 74.3669 70.2581 62.3229C93.1231 46.1229 107.746 38.423 113.717 39.453C119.239 40.404 122.388 42.0709 124.589 45.2079C127.635 49.5509 128.709 56.8688 128.072 68.9388C127.585 78.1498 126.106 90.214 123.386 106.911C125.443 113.449 127.5 119.727 129.178 124.711H163.578C155.456 95.5428 148.228 75.49 141.203 62.778C141.395 62.8058 141.591 62.8027 141.783 62.7689C148.814 75.5839 156.045 95.7058 164.161 124.898L164.251 125.222H128.813L128.755 125.048C128.493 124.272 126.067 117.054 123.209 108.012C122.355 113.218 121.382 118.867 120.284 125.012L120.246 125.223H81.282L94.7219 77.766C91.5503 85.47 87.5437 92.8031 82.7739 99.6339C77.1979 107.484 71.0239 113.603 64.4219 117.82C58.6121 121.585 51.9569 123.845 45.0559 124.398C44.8897 124.357 44.7193 124.336 44.5481 124.336C43.3361 124.336 42.1261 124.407 40.9141 124.395C39.8281 124.385 38.7401 124.221 37.6541 124.295L37.5591 124.232V87.0709L37.6531 86.997ZM38.0701 124.153C58.9851 125.709 73.6869 111.538 82.3479 99.3478C88.231 90.9261 92.938 81.7417 96.3389 72.048L96.8289 72.1959L81.957 124.71H119.816C124.528 98.3198 126.916 81.1098 127.562 68.9098C128.193 56.9628 127.148 49.7429 124.171 45.4999C122.057 42.4869 119.004 40.8809 113.631 39.9559C107.88 38.9659 92.9849 46.8429 70.5559 62.7369C54.2679 74.2799 39.3951 86.2468 38.0701 87.3158V124.153Z" fill="white"/>
<path d="M9.89315 51.9741C9.89315 51.9741 11.774 54.222 13.203 52.041C13.203 52.041 15.8031 57.7109 30.1661 62.1169C31.3034 62.4096 32.4823 62.7481 33.703 63.1321V77.4561L30.4852 77.2C32.1202 80.9537 34.5313 84.3189 37.5601 87.074V124.388C37.5601 124.388 17.7271 124.305 7.69613 102.088C-0.792874 83.2881 4.04115 53.9831 9.89315 51.9741Z" fill="#0CAF60"/>
<path d="M30.1749 77.4152C26.6319 76.9756 23.1823 75.9703 19.9579 74.4374L20.1801 73.9762C23.4282 75.5204 26.9076 76.5212 30.4799 76.9384C43.3799 78.0794 54.8051 74.1593 64.5541 65.2013C82.2811 48.9113 82.849 29.4133 82.601 23.8253C82.487 21.2743 81.8511 20.4064 81.3361 20.1254C81.17 20.0354 80.9839 19.989 80.795 19.9904C80.5592 19.9932 80.3275 20.053 80.12 20.1652L80.0031 20.2353C80.4121 22.5353 79.929 26.5354 78.547 32.3354L78.047 32.2162C80.141 24.4162 79.714 20.0304 79.192 19.1474C78.792 18.6214 78.3921 18.3604 78.0121 18.3844C77.1471 18.4404 76.412 19.9403 76.205 20.5143L76.1249 20.7353C76.3959 22.9093 76.025 26.1004 74.996 30.5534L74.496 30.4384C75.626 25.5384 76.0161 22.1783 75.5551 20.1093C75.0141 18.8813 74.4149 18.2264 73.8129 18.2094H73.7919C72.7999 18.2094 71.835 19.8792 71.546 20.5282L71.525 20.5744C71.954 22.4344 71.9871 25.3324 71.5641 29.5954L71.0551 29.5443C71.5551 24.5033 71.4599 21.4552 70.7809 19.8192C70.4559 19.1482 69.8739 18.2033 69.1129 18.0443C68.8143 18.0209 68.5148 18.0768 68.2448 18.2064C67.9747 18.336 67.7437 18.5348 67.5751 18.7824C66.8271 19.6054 66.4079 22.5504 65.8749 26.2824C64.7689 34.0484 63.0979 45.7822 56.5299 52.5912C49.4639 59.9162 42.1351 64.0302 33.7001 64.9462V64.4704C40.5661 63.7254 48.027 60.6703 56.16 52.2353C62.613 45.5463 64.2701 33.9094 65.3671 26.2094C65.9321 22.2444 66.34 19.3793 67.194 18.4403C67.4187 18.1224 67.7254 17.8714 68.0814 17.7138C68.4374 17.5562 68.8295 17.4979 69.2159 17.5453C69.652 17.708 70.0494 17.9595 70.3832 18.2838C70.717 18.6081 70.9798 18.9982 71.1549 19.4293V19.4352C71.2229 19.5682 71.2841 19.6953 71.3351 19.8083C71.7661 19.0363 72.6889 17.6804 73.8199 17.6994C74.6199 17.7184 75.341 18.4162 75.965 19.7772C76.312 19.0682 77.014 17.9363 77.975 17.8773C78.713 17.8283 79.2609 18.2723 79.9279 19.4723C80.4805 19.3351 81.0645 19.4062 81.568 19.6723C82.489 20.1723 83.0071 21.5574 83.1071 23.8024C83.3581 29.4464 82.7849 49.1383 64.8949 65.5783C56.1429 73.6203 46.065 77.6542 34.795 77.6532C34.448 77.6532 34.0949 77.6473 33.7479 77.6383C33.6869 77.6383 33.5779 77.6383 33.4479 77.6383C32.3537 77.6292 31.2611 77.554 30.1759 77.4132L30.1749 77.4152Z" fill="white"/>
<path d="M76.2071 19.7783L75.596 19.9072C75.5377 19.674 75.423 19.4588 75.262 19.2803L76.5621 19.0054C76.3893 19.2344 76.2682 19.498 76.2071 19.7783Z" fill="white"/>
<path d="M19.0891 35.3982L32.0581 28.8982C33.1907 28.3304 34.3915 27.9103 35.6311 27.6482L66.3779 21.1582C66.2926 21.3926 66.2418 21.6382 66.2271 21.8872L63.27 22.5112C61.5695 24.5266 60.3396 26.8956 59.6699 29.446C58.7189 32.939 58.3639 38.2461 61.1699 44.9761C61.081 45.0784 61.0044 45.1908 60.9419 45.311C58.0029 38.385 58.366 32.9222 59.342 29.3372C59.9958 26.8923 61.1452 24.6081 62.719 22.6262L45.9189 26.1721C44.6011 27.801 43.6313 29.6828 43.0691 31.7012C42.1341 35.0322 41.9071 40.3181 46.0491 46.6821L59.1121 48.843C58.9758 49.0385 58.8742 49.2561 58.812 49.4861L35.9761 45.708C34.6323 45.4859 33.3257 45.0784 32.094 44.4971C32.015 44.4611 31.9359 44.423 31.8569 44.384L19.082 37.979C18.8429 37.8593 18.6418 37.6753 18.5012 37.4478C18.3607 37.2202 18.2861 36.9581 18.2861 36.6907C18.2861 36.4232 18.3607 36.1609 18.5012 35.9333C18.6418 35.7058 18.8429 35.5219 19.082 35.4021L19.0891 35.3982ZM21.6721 38.5071L23.7319 39.54C23.3135 37.6502 23.3313 35.69 23.7839 33.8081L21.708 34.8491C21.5183 36.06 21.5078 37.2922 21.677 38.5061L21.6721 38.5071ZM28.061 33.4961C28.2603 32.7351 28.5206 31.9915 28.8391 31.2722L26.5161 32.437C26.3931 32.789 26.278 33.1571 26.177 33.5461C25.5298 35.9715 25.6264 38.5352 26.4541 40.905L28.7871 42.0752C27.5535 39.3871 27.2983 36.3523 28.0659 33.4961H28.061ZM29.0339 42.196L31.5859 43.4761C30.6759 41.9993 30.0766 40.3523 29.8247 38.636C29.5728 36.9197 29.6738 35.1702 30.1211 33.4941C30.4547 32.2362 30.9484 31.0262 31.5901 29.894L29.0801 31.1531C28.726 31.927 28.4391 32.7301 28.2229 33.5532C27.4531 36.4398 27.7427 39.5067 29.0391 42.1982L29.0339 42.196ZM26.0129 33.4961C26.0989 33.1661 26.1951 32.8501 26.2981 32.5461L23.9841 33.7061C23.4924 35.651 23.4737 37.6856 23.9299 39.6392L26.2351 40.7952C25.4485 38.4361 25.373 35.8977 26.0181 33.4961H26.0129ZM36.094 45.031L45.594 46.603C41.553 40.241 41.8001 34.9451 42.7461 31.5891C43.2873 29.6688 44.1856 27.8675 45.394 26.28L35.7681 28.312C34.5859 28.5623 33.4406 28.963 32.3601 29.5042L31.8601 29.7532C31.1636 30.9372 30.6317 32.2105 30.2791 33.5381C29.8253 35.2372 29.7323 37.0124 30.0063 38.7495C30.2804 40.4867 30.9154 42.1471 31.8701 43.624L32.063 43.7241L32.155 43.769C32.228 43.805 32.2999 43.8402 32.3789 43.8752C33.5595 44.4296 34.8117 44.8169 36.0991 45.0261L36.094 45.031ZM19.394 37.3652L21.4851 38.4131C21.3382 37.2599 21.3496 36.0922 21.519 34.9421L19.394 36.0071C19.2682 36.0702 19.1623 36.167 19.0884 36.2869C19.0144 36.4067 18.9751 36.5447 18.9751 36.6855C18.9751 36.8264 19.0144 36.9644 19.0884 37.0842C19.1623 37.2041 19.2682 37.3009 19.394 37.364V37.3652Z" fill="white"/>
<path d="M84.3971 53.0222C84.0762 53.1212 83.793 53.3156 83.5851 53.5793L75.37 52.2202C75.5038 52.0245 75.6014 51.8063 75.6581 51.5762L84.3971 53.0222Z" fill="white"/>
<path d="M82.2039 33.2183C82.2854 32.8407 82.336 32.4571 82.355 32.0713C82.421 31.0343 82.87 30.0022 82.847 28.9192C82.8441 28.7032 82.8077 28.489 82.7391 28.2842C82.8157 27.8728 82.8976 27.4756 82.9849 27.0923C83.7263 23.6813 85.0796 20.4327 86.9791 17.5042L79.5679 19.0681C79.4015 18.8289 79.1769 18.6363 78.9151 18.5083L166.08 0.108154L166.614 -0.00292969V67.3152L127.781 60.8892C127.811 60.6584 127.806 60.4242 127.765 60.1951L136.939 61.7131C131.839 54.3071 128.651 46.8373 127.47 39.4993C126.519 33.7336 126.857 27.8286 128.46 22.2092C130.063 16.5898 132.891 11.3955 136.741 6.99927L108.841 12.8882C105.909 16.2943 103.759 20.3012 102.541 24.6272C100.903 30.5452 100.903 36.7971 102.541 42.7151C102.428 42.7652 102.32 42.8263 102.219 42.8972C101.862 41.5622 101.577 40.2089 101.366 38.8433C100.608 34.0685 100.897 29.1858 102.215 24.5342C103.414 20.3098 105.485 16.3829 108.292 13.0061L87.4739 17.4001C85.4786 20.3667 84.0697 23.6877 83.3231 27.1841C82.0871 32.6561 81.7329 41.2163 86.6119 51.6753C86.5065 51.7211 86.4062 51.7774 86.3121 51.8433C83.4775 46.0512 82.0689 39.6653 82.2039 33.2183ZM165.915 0.843262C162.467 3.11915 159.331 5.83622 156.587 8.92529C152.122 13.9393 146.771 22.2101 146.636 33.1401C146.512 43.1131 151.88 51.7241 156.404 57.1921C159.238 60.6103 162.432 63.7136 165.93 66.4482V0.841309L165.915 0.843262ZM128.889 21.9502C126.262 30.7832 125.622 44.8502 137.406 61.7942L165.333 66.4153C161.971 63.7375 158.893 60.7217 156.147 57.4153C151.583 51.9023 146.17 43.2153 146.295 33.1353C146.432 22.0953 151.833 13.7482 156.34 8.68921C158.915 5.80164 161.826 3.23176 165.01 1.03418L137.31 6.88013C133.412 11.2111 130.535 16.3607 128.889 21.9502Z" fill="white"/>
<path d="M8.19004 43.512C9.67604 43.512 6.0969 41.8432 7.1959 38.0352C8.2949 34.2272 15.215 40.9283 20.576 36.1273C25.937 31.3263 17.819 24.1272 15.776 26.4112C13.733 28.6952 16.2931 29.8893 14.4061 30.2113C12.5191 30.5333 1.81504 28.0901 1.98204 37.6951C1.98004 37.6991 6.70404 43.508 8.19004 43.512Z" fill="white"/>
<path d="M15.8491 128.974H62.7891V124.106H15.8491V128.974ZM62.449 128.633H16.1909V124.447H62.449V128.633Z" fill="white"/>
</svg>
