<svg width="25" height="24" viewBox="0 0 25 24" fill="none" xmlns="http://www.w3.org/2000/svg">
<path d="M20.5383 11.9998C20.5382 10.2167 19.9538 8.48476 18.878 7.07901C17.8023 5.67327 16.2968 4.6743 14.6007 4.24076C12.9045 3.80721 11.115 3.96393 9.51617 4.68603C7.91736 5.40813 6.60096 6.65421 5.77599 8.22641C4.95103 9.79861 4.6648 11.6068 4.96275 13.3638C5.2607 15.1209 6.12576 16.7261 7.42055 17.9245C8.71535 19.1229 10.3657 19.8458 12.1094 19.9785C13.8532 20.1112 15.5904 19.646 17.0453 18.6568L18.1338 20.3208C16.3153 21.5574 14.1437 22.139 11.964 21.9733C9.78427 21.8076 7.72132 20.904 6.10274 19.406C4.48416 17.9081 3.40274 15.9016 3.03021 13.7053C2.65768 11.509 3.01539 9.24875 4.04654 7.28344C5.07769 5.31814 6.72316 3.76046 8.72167 2.85777C10.7202 1.95508 12.9571 1.75913 15.0773 2.30102C17.1975 2.84292 19.0794 4.0916 20.4242 5.84878C21.7689 7.60596 22.4994 9.7709 22.4996 11.9998V13.4998C22.501 14.2497 22.2661 14.9802 21.8297 15.5837C21.3932 16.1872 20.7782 16.6317 20.0752 16.8519C19.3723 17.0721 18.6186 17.0563 17.9252 16.8067C17.2317 16.5572 16.6352 16.0871 16.2235 15.4658C15.5687 16.1595 14.7313 16.6456 13.8121 16.8658C12.8928 17.0859 11.9308 17.0307 11.0416 16.7068C10.1524 16.3829 9.37384 15.804 8.79943 15.0398C8.22503 14.2756 7.87923 13.3585 7.80359 12.3987C7.72795 11.4389 7.92569 10.4773 8.37304 9.62935C8.82039 8.7814 9.49833 8.08319 10.3254 7.61864C11.1525 7.15408 12.0935 6.94292 13.0354 7.01054C13.9773 7.07816 14.88 7.42168 15.6351 7.99982H17.5964V13.4998C17.5964 13.8976 17.7514 14.2792 18.0272 14.5605C18.3031 14.8418 18.6773 14.9998 19.0674 14.9998C19.4575 14.9998 19.8316 14.8418 20.1075 14.5605C20.3834 14.2792 20.5383 13.8976 20.5383 13.4998V11.9998ZM12.6932 8.99982C12.1113 8.99982 11.5425 9.17577 11.0587 9.50541C10.5749 9.83506 10.1979 10.3036 9.97519 10.8518C9.75252 11.3999 9.69426 12.0031 9.80778 12.5851C9.92129 13.167 10.2015 13.7016 10.6129 14.1211C11.0244 14.5407 11.5486 14.8264 12.1192 14.9422C12.6899 15.0579 13.2814 14.9985 13.819 14.7715C14.3566 14.5444 14.8161 14.1599 15.1393 13.6665C15.4626 13.1732 15.6351 12.5932 15.6351 11.9998C15.6351 11.2042 15.3252 10.4411 14.7734 9.8785C14.2217 9.31589 13.4734 8.99982 12.6932 8.99982Z" fill="#C4C4C4"/>
</svg>
