<svg width="25" height="24" viewBox="0 0 25 24" fill="none" xmlns="http://www.w3.org/2000/svg">
<g clip-path="url(#clip0_1_7948)">
<path d="M14.9961 22C9.47309 22 4.99609 17.523 4.99609 12C4.99609 6.477 9.47309 2 14.9961 2C20.5191 2 24.9961 6.477 24.9961 12C24.9961 17.523 20.5191 22 14.9961 22ZM14.9961 20C17.1178 20 19.1527 19.1571 20.6529 17.6569C22.1532 16.1566 22.9961 14.1217 22.9961 12C22.9961 9.87827 22.1532 7.84344 20.6529 6.34315C19.1527 4.84285 17.1178 4 14.9961 4C12.8744 4 10.8395 4.84285 9.33924 6.34315C7.83895 7.84344 6.99609 9.87827 6.99609 12C6.99609 14.1217 7.83895 16.1566 9.33924 17.6569C10.8395 19.1571 12.8744 20 14.9961 20ZM13.9961 12.792C13.4697 12.5623 13.0385 12.1583 12.7749 11.648C12.5113 11.1377 12.4315 10.5522 12.5488 9.98994C12.6662 9.4277 12.9735 8.92302 13.4192 8.56075C13.8649 8.19847 14.4217 8.00071 14.9961 8.00071C15.5704 8.00071 16.1273 8.19847 16.573 8.56075C17.0187 8.92302 17.326 9.4277 17.4434 9.98994C17.5607 10.5522 17.4809 11.1377 17.2173 11.648C16.9537 12.1583 16.5225 12.5623 15.9961 12.792V16H13.9961V12.792Z" fill="#C4C4C4"/>
</g>
<defs>
<clipPath id="clip0_1_7948">
<rect width="23.5355" height="24" fill="white" transform="translate(0.925781)"/>
</clipPath>
</defs>
</svg>
