<svg width="25" height="25" viewBox="0 0 25 25" fill="none" xmlns="http://www.w3.org/2000/svg">
<g clip-path="url(#clip0_1_7943)">
<path d="M10.159 17.3494C8.77049 16.3702 7.72978 14.9743 7.18766 13.364C6.64555 11.7538 6.6302 10.0127 7.14383 8.39312C7.65746 6.77354 8.6734 5.35955 10.0444 4.35601C11.4155 3.35248 13.0705 2.81152 14.7695 2.81152C16.4686 2.81152 18.1236 3.35248 19.4946 4.35601C20.8657 5.35955 21.8816 6.77354 22.3952 8.39312C22.9089 10.0127 22.8935 11.7538 22.3514 13.364C21.8093 14.9743 20.7686 16.3702 19.38 17.3494L21.463 22.1094C21.4965 22.1856 21.5104 22.2689 21.5035 22.3518C21.4966 22.4347 21.4691 22.5146 21.4235 22.5843C21.3779 22.6539 21.3157 22.711 21.2424 22.7505C21.1692 22.79 21.0872 22.8106 21.004 22.8104H8.53403C8.45095 22.8105 8.36914 22.7899 8.29601 22.7505C8.22288 22.711 8.16072 22.654 8.11516 22.5845C8.0696 22.5151 8.04208 22.4353 8.03507 22.3525C8.02806 22.2697 8.0418 22.1865 8.07503 22.1104L10.158 17.3494H10.159ZM16.894 16.6564L18.226 15.7154C19.2678 14.9812 20.0486 13.9343 20.4555 12.7266C20.8624 11.5188 20.8742 10.2129 20.4891 8.99802C20.104 7.78314 19.342 6.72244 18.3137 5.96963C17.2853 5.21682 16.044 4.81101 14.7695 4.81101C13.4951 4.81101 12.2537 5.21682 11.2254 5.96963C10.197 6.72244 9.4351 7.78314 9.05 8.99802C8.6649 10.2129 8.67665 11.5188 9.08353 12.7266C9.49042 13.9343 10.2713 14.9812 11.313 15.7154L12.644 16.6564L10.827 20.8104H18.711L16.894 16.6564ZM10.888 11.7804L12.828 11.2954C12.9357 11.7287 13.1853 12.1136 13.537 12.3887C13.8888 12.6637 14.3225 12.8132 14.769 12.8132C15.2156 12.8132 15.6493 12.6637 16.001 12.3887C16.3528 12.1136 16.6024 11.7287 16.71 11.2954L18.65 11.7804C18.4325 12.6448 17.9325 13.412 17.2295 13.96C16.5264 14.5081 15.6605 14.8057 14.769 14.8057C13.8776 14.8057 13.0117 14.5081 12.3086 13.96C11.6055 13.412 11.1056 12.6448 10.888 11.7804Z" fill="#C4C4C4"/>
</g>
<defs>
<clipPath id="clip0_1_7943">
<rect width="23.5355" height="24" fill="white" transform="translate(0.703125 0.810547)"/>
</clipPath>
</defs>
</svg>
